<svg width="1200" height="760" viewBox="0 0 1200 760" fill="none" xmlns="http://www.w3.org/2000/svg">
  <rect width="1200" height="760" rx="32" fill="#EEF4F8"/>
  <rect x="60" y="60" width="1080" height="640" rx="28" fill="#FFFFFF"/>
  <rect x="108" y="110" width="340" height="540" rx="24" fill="#16324F"/>
  <rect x="500" y="122" width="572" height="86" rx="18" fill="#D7E0E8"/>
  <rect x="500" y="240" width="250" height="160" rx="22" fill="#3F6C8F"/>
  <rect x="786" y="240" width="286" height="160" rx="22" fill="#E5EEF4"/>
  <rect x="500" y="442" width="572" height="26" rx="13" fill="#D7E0E8"/>
  <rect x="500" y="490" width="510" height="26" rx="13" fill="#D7E0E8"/>
  <rect x="500" y="548" width="198" height="54" rx="27" fill="#2FBF9F"/>
  <circle cx="278" cy="258" r="78" fill="#2FBF9F" fill-opacity="0.2"/>
  <circle cx="278" cy="258" r="38" fill="#2FBF9F"/>
  <rect x="180" y="404" width="192" height="22" rx="11" fill="#A7BCCB"/>
  <rect x="180" y="448" width="144" height="22" rx="11" fill="#A7BCCB"/>
  <rect x="180" y="492" width="174" height="22" rx="11" fill="#A7BCCB"/>
</svg>
