<svg width="1200" height="800" viewBox="0 0 1200 800" fill="none" xmlns="http://www.w3.org/2000/svg">
  <rect width="1200" height="800" rx="36" fill="#FFF8F0"/>
  <rect x="52" y="52" width="1096" height="696" rx="28" fill="#FDEBCE"/>
  <rect x="110" y="122" width="360" height="246" rx="26" fill="#F7D39A"/>
  <rect x="508" y="122" width="584" height="246" rx="26" fill="#F3C57A"/>
  <rect x="110" y="420" width="280" height="220" rx="24" fill="#FFDFAE"/>
  <rect x="430" y="420" width="280" height="220" rx="24" fill="#FFDFAE"/>
  <rect x="750" y="420" width="280" height="220" rx="24" fill="#FFDFAE"/>
  <rect x="144" y="164" width="156" height="18" rx="9" fill="#C88620"/>
  <rect x="144" y="198" width="230" height="12" rx="6" fill="#CFA45D"/>
  <rect x="542" y="164" width="198" height="18" rx="9" fill="#A86610"/>
  <rect x="542" y="198" width="312" height="12" rx="6" fill="#CFA45D"/>
  <rect x="152" y="470" width="116" height="16" rx="8" fill="#C88620"/>
  <rect x="472" y="470" width="116" height="16" rx="8" fill="#C88620"/>
  <rect x="792" y="470" width="116" height="16" rx="8" fill="#C88620"/>
</svg>
