<svg width="1200" height="800" viewBox="0 0 1200 800" fill="none" xmlns="http://www.w3.org/2000/svg">
  <rect width="1200" height="800" rx="36" fill="#FFF8F0"/>
  <rect x="52" y="52" width="1096" height="696" rx="28" fill="#FDEBCE"/>
  <rect x="118" y="116" width="448" height="560" rx="30" fill="#FFFDF8"/>
  <rect x="604" y="116" width="478" height="260" rx="30" fill="#F7D39A"/>
  <rect x="604" y="416" width="478" height="260" rx="30" fill="#E6F0FB"/>
  <rect x="170" y="172" width="180" height="18" rx="9" fill="#A86610"/>
  <rect x="170" y="218" width="340" height="12" rx="6" fill="#D0B183"/>
  <rect x="170" y="262" width="340" height="12" rx="6" fill="#D0B183"/>
  <rect x="170" y="306" width="340" height="12" rx="6" fill="#D0B183"/>
  <rect x="170" y="350" width="300" height="12" rx="6" fill="#D0B183"/>
  <rect x="170" y="424" width="160" height="48" rx="16" fill="#1F6EA9"/>
  <circle cx="748" cy="212" r="54" fill="#FFF7E7"/>
  <circle cx="938" cy="212" r="54" fill="#FFF7E7"/>
  <rect x="662" y="492" width="140" height="18" rx="9" fill="#1F6EA9"/>
  <rect x="662" y="536" width="280" height="12" rx="6" fill="#8CB2D6"/>
</svg>
