<svg width="1200" height="800" viewBox="0 0 1200 800" fill="none" xmlns="http://www.w3.org/2000/svg">
  <rect width="1200" height="800" rx="36" fill="#F4F9FF"/>
  <rect x="52" y="52" width="1096" height="696" rx="28" fill="#E6F0FB"/>
  <rect x="110" y="118" width="980" height="272" rx="30" fill="#CFE4F7"/>
  <rect x="110" y="438" width="300" height="220" rx="26" fill="#B7D6F0"/>
  <rect x="450" y="438" width="300" height="220" rx="26" fill="#F6E4C3"/>
  <rect x="790" y="438" width="300" height="220" rx="26" fill="#D8E7DD"/>
  <circle cx="212" cy="222" r="44" fill="#FFFFFF"/>
  <circle cx="330" cy="222" r="44" fill="#FFFFFF"/>
  <circle cx="448" cy="222" r="44" fill="#FFFFFF"/>
  <rect x="568" y="190" width="370" height="20" rx="10" fill="#5F8FBF"/>
  <rect x="568" y="232" width="280" height="14" rx="7" fill="#8CB2D6"/>
  <rect x="148" y="492" width="120" height="16" rx="8" fill="#5F8FBF"/>
  <rect x="488" y="492" width="120" height="16" rx="8" fill="#C88620"/>
  <rect x="828" y="492" width="120" height="16" rx="8" fill="#4E8B69"/>
</svg>
