<svg width="1200" height="800" viewBox="0 0 1200 800" fill="none" xmlns="http://www.w3.org/2000/svg">
  <rect width="1200" height="800" rx="36" fill="#F5F7F4"/>
  <rect x="52" y="52" width="1096" height="696" rx="28" fill="#E8EEE8"/>
  <rect x="116" y="116" width="968" height="250" rx="30" fill="#D9E5DC"/>
  <rect x="116" y="414" width="296" height="248" rx="28" fill="#FFF7EA"/>
  <rect x="452" y="414" width="296" height="248" rx="28" fill="#DDEAF7"/>
  <rect x="788" y="414" width="296" height="248" rx="28" fill="#E8D7BC"/>
  <rect x="176" y="180" width="170" height="18" rx="9" fill="#4E8B69"/>
  <rect x="176" y="226" width="360" height="14" rx="7" fill="#89A39A"/>
  <rect x="176" y="272" width="302" height="14" rx="7" fill="#89A39A"/>
  <circle cx="902" cy="232" r="74" fill="#F9FCF8"/>
  <rect x="170" y="478" width="124" height="16" rx="8" fill="#C88620"/>
  <rect x="506" y="478" width="124" height="16" rx="8" fill="#1F6EA9"/>
  <rect x="842" y="478" width="124" height="16" rx="8" fill="#8A5B1B"/>
</svg>
