<svg xmlns="http://www.w3.org/2000/svg" viewBox="0 0 1600 1100" role="img" aria-labelledby="title desc">
  <title id="title">旅館外観イメージ</title>
  <desc id="desc">夜の灯りがともる木造旅館と庭の石畳を描いたプレースホルダー画像です。</desc>
  <defs>
    <linearGradient id="bg" x1="0" y1="0" x2="1" y2="1">
      <stop offset="0%" stop-color="#24160f"/>
      <stop offset="55%" stop-color="#5f311f"/>
      <stop offset="100%" stop-color="#111312"/>
    </linearGradient>
    <linearGradient id="glow" x1="0" y1="0" x2="0" y2="1">
      <stop offset="0%" stop-color="#f4d8a8" stop-opacity="0.95"/>
      <stop offset="100%" stop-color="#d39c50" stop-opacity="0.25"/>
    </linearGradient>
  </defs>
  <rect width="1600" height="1100" fill="url(#bg)"/>
  <rect y="760" width="1600" height="340" fill="#1e2416"/>
  <path d="M0 790C260 700 420 715 640 760s380 75 960-20v370H0z" fill="#2b3a20"/>
  <rect x="180" y="160" width="1240" height="470" rx="12" fill="#3b2519"/>
  <rect x="240" y="215" width="1120" height="355" rx="8" fill="#2a1711"/>
  <rect x="460" y="130" width="680" height="55" fill="#180f0b"/>
  <g fill="url(#glow)">
    <rect x="290" y="245" width="240" height="230" rx="6"/>
    <rect x="560" y="245" width="180" height="230" rx="6"/>
    <rect x="770" y="245" width="210" height="230" rx="6"/>
    <rect x="1010" y="245" width="220" height="230" rx="6"/>
  </g>
  <rect x="670" y="420" width="250" height="210" rx="10" fill="#59301f"/>
  <path d="M120 880c165-105 328-110 459-65 150 52 246 50 384 8 141-43 248-11 517 72" stroke="#6f573c" stroke-width="24" fill="none" stroke-linecap="round"/>
  <circle cx="1330" cy="235" r="28" fill="#f0dfbf" opacity="0.8"/>
</svg>
