<svg xmlns="http://www.w3.org/2000/svg" viewBox="0 0 1600 1100" role="img" aria-labelledby="title desc">
  <title id="title">穏やかなラウンジ空間</title>
  <desc id="desc">木の壁面と柔らかな照明、低めのソファを配したウェルネス施設のラウンジを描いたイラスト</desc>
  <defs>
    <linearGradient id="bg" x1="0" x2="1" y1="0" y2="1">
      <stop offset="0%" stop-color="#efe5d8"/>
      <stop offset="100%" stop-color="#d7cab8"/>
    </linearGradient>
    <linearGradient id="floor" x1="0" x2="0" y1="0" y2="1">
      <stop offset="0%" stop-color="#d9d4ca"/>
      <stop offset="100%" stop-color="#c7c0b3"/>
    </linearGradient>
  </defs>
  <rect width="1600" height="1100" fill="#f6f2ea"/>
  <rect x="120" y="120" width="1360" height="640" rx="8" fill="url(#bg)"/>
  <rect x="120" y="760" width="1360" height="220" fill="url(#floor)"/>
  <rect x="184" y="160" width="168" height="540" fill="#2f312f"/>
  <rect x="1248" y="160" width="168" height="540" fill="#2f312f"/>
  <rect x="402" y="190" width="796" height="480" rx="10" fill="#ecdcc4"/>
  <rect x="458" y="244" width="180" height="320" rx="12" fill="#d8c6ac"/>
  <rect x="972" y="244" width="170" height="320" rx="12" fill="#d8c6ac"/>
  <rect x="698" y="320" width="204" height="180" rx="18" fill="#f4ead7"/>
  <rect x="724" y="358" width="152" height="124" rx="12" fill="#fefcf8"/>
  <rect x="520" y="710" width="220" height="126" rx="18" fill="#f3ece0"/>
  <rect x="848" y="710" width="220" height="126" rx="18" fill="#f3ece0"/>
  <rect x="580" y="664" width="96" height="58" rx="14" fill="#e7d6bb"/>
  <rect x="908" y="664" width="96" height="58" rx="14" fill="#e7d6bb"/>
  <rect x="770" y="592" width="60" height="164" rx="30" fill="#dbc49b"/>
  <ellipse cx="800" cy="562" rx="108" ry="84" fill="#f4dca9"/>
  <ellipse cx="800" cy="562" rx="72" ry="56" fill="#fff8dd"/>
</svg>
