<svg width="1600" height="960" viewBox="0 0 1600 960" fill="none" xmlns="http://www.w3.org/2000/svg">
  <rect width="1600" height="960" fill="#13293D"/>
  <rect y="540" width="1600" height="420" fill="#193A53"/>
  <path d="M0 594C157 540 306 521 482 551C663 582 771 639 956 633C1163 626 1284 545 1600 560V960H0V594Z" fill="#2E556F"/>
  <path d="M0 688C163 640 286 661 452 700C667 752 808 762 973 724C1124 689 1278 622 1600 668V960H0V688Z" fill="#3F6E86"/>
  <circle cx="1198" cy="216" r="94" fill="#E9C488" fill-opacity="0.9"/>
  <rect x="952" y="470" width="456" height="228" rx="22" fill="#F3EEE6" fill-opacity="0.94"/>
  <rect x="988" y="510" width="384" height="20" rx="10" fill="#D8B78A"/>
  <rect x="988" y="550" width="338" height="16" rx="8" fill="#C8D4DE"/>
  <rect x="988" y="584" width="290" height="16" rx="8" fill="#C8D4DE"/>
  <rect x="120" y="126" width="490" height="308" rx="36" fill="#EFE6D6" fill-opacity="0.92"/>
  <rect x="165" y="172" width="400" height="28" rx="14" fill="#D3B68F"/>
  <rect x="165" y="224" width="330" height="18" rx="9" fill="#B8C6D1"/>
  <rect x="165" y="258" width="365" height="18" rx="9" fill="#B8C6D1"/>
  <path d="M1180 416C1247 416 1302 363 1302 296C1302 229 1247 176 1180 176C1113 176 1058 229 1058 296C1058 363 1113 416 1180 416Z" fill="#FFFFFF" fill-opacity="0.14"/>
</svg>
