<svg width="800" height="520" viewBox="0 0 800 520" fill="none" xmlns="http://www.w3.org/2000/svg" role="img" aria-labelledby="suiteTitle suiteDesc">
  <title id="suiteTitle">Ocean suite placeholder</title>
  <desc id="suiteDesc">A stylized suite interior with wide ocean-facing windows.</desc>
  <rect width="800" height="520" rx="32" fill="#F4FBF8"/>
  <rect x="44" y="54" width="712" height="412" rx="24" fill="#FFFFFF"/>
  <rect x="94" y="96" width="612" height="172" rx="18" fill="#D7EFE9"/>
  <rect x="110" y="112" width="580" height="138" rx="16" fill="#C5EEF5"/>
  <path d="M110 193C178 173 224 186 285 213C357 244 422 247 495 223C561 202 620 165 690 149V250H110V193Z" fill="#5FB3A2"/>
  <rect x="114" y="278" width="226" height="116" rx="18" fill="#EFE7DB"/>
  <rect x="138" y="302" width="178" height="46" rx="16" fill="#FEFCF8"/>
  <rect x="366" y="292" width="124" height="86" rx="18" fill="#F4B860"/>
  <rect x="516" y="278" width="138" height="116" rx="18" fill="#D9EEE8"/>
  <text x="92" y="438" fill="#0F766E" font-family="sans-serif" font-size="24" font-weight="700" letter-spacing="3">OCEAN SUITE</text>
</svg>
