<svg width="1200" height="980" viewBox="0 0 1200 980" fill="none" xmlns="http://www.w3.org/2000/svg" role="img" aria-labelledby="heroTitle heroDesc">
  <title id="heroTitle">Seasonal campaign placeholder</title>
  <desc id="heroDesc">Editorial travel collage with mountains, beach, city lights, and campaign blocks.</desc>
  <rect width="1200" height="980" fill="#F7FAFE"/>
  <rect x="56" y="64" width="520" height="370" rx="30" fill="#145DA0"/>
  <rect x="624" y="64" width="520" height="246" rx="30" fill="#DDECFB"/>
  <rect x="624" y="340" width="520" height="522" rx="30" fill="#FFFFFF"/>
  <rect x="56" y="470" width="520" height="392" rx="30" fill="#FFF0E9"/>
  <path d="M96 352C172 260 228 212 280 212C352 212 392 286 462 286C510 286 540 256 576 216V404H96V352Z" fill="#6DA9E4"/>
  <circle cx="992" cy="148" r="54" fill="#FF7A45"/>
  <path d="M686 250C744 214 790 193 852 193C931 193 970 244 1042 244C1081 244 1113 228 1144 202V282H686V250Z" fill="#6DA9E4"/>
  <rect x="666" y="382" width="436" height="176" rx="20" fill="#E9F3FD"/>
  <path d="M684 502C760 452 828 430 900 430C974 430 1022 455 1084 500V540H684V502Z" fill="#145DA0"/>
  <rect x="666" y="586" width="208" height="224" rx="20" fill="#FFF4EF"/>
  <rect x="894" y="586" width="208" height="224" rx="20" fill="#E9F3FD"/>
  <path d="M98 708C176 658 262 642 338 642C402 642 462 655 536 702V822H98V708Z" fill="#FFB18E"/>
  <rect x="122" y="108" width="184" height="110" rx="18" fill="#F7FAFE"/>
  <rect x="332" y="108" width="198" height="152" rx="18" fill="#F7FAFE"/>
  <rect x="148" y="502" width="340" height="78" rx="20" fill="#FFFFFF"/>
  <rect x="710" y="618" width="116" height="116" rx="58" fill="#FF7A45"/>
  <rect x="936" y="620" width="124" height="78" rx="20" fill="#145DA0"/>
  <text x="92" y="914" fill="#145DA0" font-family="sans-serif" font-size="38" font-weight="700" letter-spacing="4">SEASONAL CAMPAIGN</text>
</svg>
