<svg width="900" height="620" viewBox="0 0 900 620" fill="none" xmlns="http://www.w3.org/2000/svg" role="img" aria-labelledby="hokkaidoTitle hokkaidoDesc">
  <title id="hokkaidoTitle">Hokkaido flower offer placeholder</title>
  <desc id="hokkaidoDesc">Mountains, flower fields, and a rail journey in soft spring colors.</desc>
  <rect width="900" height="620" fill="#F4F9FF"/>
  <rect y="380" width="900" height="240" fill="#BFE0FF"/>
  <path d="M0 398C88 372 150 334 254 334C338 334 384 360 460 360C542 360 626 315 700 315C766 315 829 346 900 375V620H0V398Z" fill="#6DA9E4"/>
  <path d="M0 462C100 454 168 500 254 500C348 500 422 442 524 442C604 442 684 494 772 494C828 494 870 476 900 462V620H0V462Z" fill="#145DA0"/>
  <rect x="94" y="178" width="318" height="78" rx="39" fill="#FFFFFF"/>
  <circle cx="148" cy="432" r="22" fill="#FF7A45"/>
  <circle cx="224" cy="468" r="18" fill="#FFB18E"/>
  <circle cx="294" cy="430" r="20" fill="#FFA37C"/>
  <circle cx="366" cy="474" r="18" fill="#FFD0BE"/>
  <rect x="532" y="288" width="224" height="108" rx="20" fill="#FFFFFF"/>
  <rect x="564" y="316" width="160" height="48" rx="14" fill="#E4F1FC"/>
  <text x="88" y="560" fill="#F7FAFE" font-family="sans-serif" font-size="28" font-weight="700" letter-spacing="4">HOKKAIDO FLOWER TOUR</text>
</svg>
